<svg width="26" height="26" viewBox="0 0 26 26" fill="none" xmlns="http://www.w3.org/2000/svg">
<path d="M5.41667 9.11733C5.43624 7.47493 6.02934 5.89103 7.09335 4.63973C8.15736 3.38842 9.62532 2.54843 11.2432 2.26511C12.8611 1.98179 14.5272 2.27297 15.9531 3.08826C17.379 3.90354 18.475 5.19164 19.0515 6.72967C20.5334 7.13552 21.8235 8.05317 22.6932 9.31981C23.5628 10.5865 23.9556 12.1202 23.8019 13.6489C23.7753 13.9165 23.6501 14.1646 23.4507 14.3451C23.2512 14.5255 22.9918 14.6252 22.7229 14.625H3.28359C3.13001 14.625 2.97819 14.5923 2.83821 14.5291C2.69823 14.4659 2.57328 14.3737 2.47165 14.2585C2.37003 14.1434 2.29405 14.0079 2.24875 13.8612C2.20345 13.7144 2.18988 13.5597 2.20892 13.4073C2.32585 12.4755 2.68302 11.5902 3.24538 10.8381C3.80774 10.086 4.55598 9.49299 5.41667 9.11733ZM3.25001 17.3333C3.25001 17.046 3.36414 16.7705 3.56731 16.5673C3.77047 16.3641 4.04602 16.25 4.33334 16.25H21.6667C21.954 16.25 22.2295 16.3641 22.4327 16.5673C22.6359 16.7705 22.75 17.046 22.75 17.3333C22.75 17.6207 22.6359 17.8962 22.4327 18.0994C22.2295 18.3025 21.954 18.4167 21.6667 18.4167H4.33334C4.04602 18.4167 3.77047 18.3025 3.56731 18.0994C3.36414 17.8962 3.25001 17.6207 3.25001 17.3333ZM8.66667 20.5833C8.37936 20.5833 8.10381 20.6975 7.90064 20.9006C7.69748 21.1038 7.58334 21.3793 7.58334 21.6667C7.58334 21.954 7.69748 22.2295 7.90064 22.4327C8.10381 22.6359 8.37936 22.75 8.66667 22.75H18.4167C18.704 22.75 18.9795 22.6359 19.1827 22.4327C19.3859 22.2295 19.5 21.954 19.5 21.6667C19.5 21.3793 19.3859 21.1038 19.1827 20.9006C18.9795 20.6975 18.704 20.5833 18.4167 20.5833H8.66667Z" fill="white"/>
</svg>
